<svg xmlns="http://www.w3.org/2000/svg" viewBox="0 0 46 46"><defs><style>.cls-1{fill:#c9c9c9;}.cls-2{fill:#fff;}.cls-3{fill:#422bd4;}</style></defs><g id="Layer_2" data-name="Layer 2"><g id="Layer_1-2" data-name="Layer 1"><path class="cls-1" d="M11,20a9,9,0,0,1,9-9H37a9,9,0,0,1,9,9V37a9,9,0,0,1-9,9H20a9,9,0,0,1-9-9Z"/><rect class="cls-2" width="41" height="41" rx="9"/><path class="cls-3" d="M7.68,30V12.72H18.84v2.71H10.57v4.26H17.4V22.4H10.57v4.89h8.27V30Zm13.56,0V27.46l7.39-6.59a4.93,4.93,0,0,0,1.2-1.45,2.94,2.94,0,0,0,.34-1.32,3.22,3.22,0,0,0-.37-1.54,2.77,2.77,0,0,0-1-1.08,2.85,2.85,0,0,0-1.5-.4A3,3,0,0,0,24.6,16.6a2.68,2.68,0,0,0-.36,1.47h-3a5.78,5.78,0,0,1,.77-3,5.27,5.27,0,0,1,2.14-2,6.77,6.77,0,0,1,3.15-.71,6,6,0,0,1,3,.74,5.43,5.43,0,0,1,2.08,2,5.87,5.87,0,0,1,.75,3,5.71,5.71,0,0,1-.33,2.08,5,5,0,0,1-1,1.55c-.44.47-1,1-1.65,1.57L24.9,28l-.26-.72h8.49V30Z"/></g></g></svg>