<svg width="18" height="20" viewBox="0 0 18 20" fill="none" xmlns="http://www.w3.org/2000/svg">
<g opacity="0.6">
<path d="M11.9696 16.5625H15.7447C15.9749 16.5626 16.2 16.4952 16.3914 16.369C16.5829 16.2428 16.7321 16.0633 16.8203 15.8534C16.9084 15.6434 16.9314 15.4124 16.8865 15.1895C16.8416 14.9666 16.7307 14.7618 16.5678 14.6012L15.7447 13.7887C15.4359 13.484 15.2624 13.0707 15.2623 12.6398V10.0398C15.2706 9.18328 15.1067 8.33365 14.7801 7.54009C14.4535 6.74653 13.9706 6.0248 13.3595 5.41668C12.7483 4.80857 12.0211 4.32615 11.2198 3.99736C10.4184 3.66857 9.559 3.49994 8.69121 3.50123C7.82341 3.50252 6.9645 3.6737 6.16419 4.00487C5.36388 4.33604 4.63807 4.82062 4.02879 5.43055C3.41951 6.04048 2.93886 6.76364 2.61467 7.55817C2.29047 8.3527 2.12917 9.20281 2.14011 10.0593L2.14752 12.6211C2.14819 12.8402 2.10398 13.0571 2.01754 13.2588C1.93111 13.4606 1.80424 13.643 1.64456 13.7952L0.79752 14.6028C0.630924 14.76 0.515902 14.9629 0.467312 15.1852C0.418721 15.4076 0.438794 15.6392 0.524937 15.8502C0.61108 16.0612 0.759336 16.2419 0.950556 16.3688C1.14178 16.4958 1.36718 16.5633 1.59764 16.5625H5.38423C5.38423 17.4245 5.73113 18.2511 6.34863 18.8606C6.96613 19.4701 7.80364 19.8125 8.67691 19.8125C9.55019 19.8125 10.3877 19.4701 11.0052 18.8606C11.6227 18.2511 11.9696 17.4245 11.9696 16.5625ZM14.8713 14.6499L15.5743 15.3438H1.79603L2.50231 14.6702C2.78148 14.404 3.00327 14.0848 3.15435 13.7318C3.30542 13.3789 3.38267 12.9994 3.38145 12.6162L3.37487 10.0544C3.36513 9.35857 3.49544 8.66774 3.75825 8.02198C4.02106 7.37623 4.41113 6.78839 4.90586 6.29256C5.40058 5.79673 5.99011 5.40278 6.64025 5.13354C7.2904 4.8643 7.98823 4.72513 8.69328 4.72411C9.39833 4.72309 10.0966 4.86023 10.7475 5.12759C11.3985 5.39494 11.9892 5.78718 12.4853 6.28158C12.9815 6.77597 13.3734 7.36267 13.6381 8.00767C13.9028 8.65266 14.0352 9.34311 14.0275 10.039V12.639C14.0275 13.0124 14.102 13.3822 14.2468 13.7273C14.3915 14.0723 14.6037 14.3858 14.8713 14.6499ZM10.7348 16.5625H6.61898C6.61898 17.1013 6.8358 17.6179 7.22174 17.9988C7.60767 18.3798 8.13111 18.5938 8.67691 18.5938C9.22271 18.5938 9.74615 18.3798 10.1321 17.9988C10.518 17.6179 10.7348 17.1013 10.7348 16.5625Z" fill="black"/>
</g>
<path d="M13.6159 8.4375C15.889 8.4375 17.7317 6.61866 17.7317 4.375C17.7317 2.13134 15.889 0.3125 13.6159 0.3125C11.3427 0.3125 9.5 2.13134 9.5 4.375C9.5 6.61866 11.3427 8.4375 13.6159 8.4375Z" fill="#422BD4"/>
<path d="M13.6159 8.03125C15.6617 8.03125 17.3202 6.39429 17.3202 4.375C17.3202 2.35571 15.6617 0.71875 13.6159 0.71875C11.5701 0.71875 9.91162 2.35571 9.91162 4.375C9.91162 6.39429 11.5701 8.03125 13.6159 8.03125Z" stroke="#5E25BC" stroke-width="0.5"/>
</svg>
