<svg width="24" height="24" viewBox="0 0 24 24" fill="none" xmlns="http://www.w3.org/2000/svg">
<path d="M13.8593 17.3704V19.1651C13.8593 20.1785 13.0379 21 12.0245 21C11.0208 21 10.2034 20.1936 10.1898 19.19L10.1652 17.3704M13.8593 17.3704H10.1652M13.8593 17.3704C13.8593 16.7452 14.2567 16.2022 14.7811 15.8619C16.1192 14.9935 17 13.516 17 11.8395C17 9.16672 14.7614 7 12 7C9.23858 7 7 9.16672 7 11.8395C7 13.5159 7.88067 14.9933 9.21865 15.8617C9.74544 16.2037 10.1503 16.7425 10.1652 17.3704M12 4.5V2.5M19.5 12H21.5M17.3031 17.3033L18.7173 18.7175M2.5 12H4.5M5.28256 5.28247L6.69678 6.69669M6.69644 17.3031L5.28223 18.7173M18.7174 5.28256L17.3032 6.69678" stroke="white" stroke-width="1.25" stroke-linecap="round"/>
</svg>
