<svg width="18" height="16" viewBox="0 0 18 16" fill="none" xmlns="http://www.w3.org/2000/svg">
<g opacity="0.6">
<path d="M4.84995 12.2515C5.07176 12.0689 5.35139 11.9689 5.6402 11.9688H14.6951C15.0226 11.9687 15.3366 11.8403 15.5682 11.6118C15.7997 11.3832 15.9298 11.0732 15.9298 10.75V2.625C15.9298 2.30177 15.7997 1.99177 15.5682 1.76321C15.3366 1.53465 15.0226 1.40625 14.6951 1.40625H3.17068C2.84321 1.40625 2.52914 1.53465 2.29758 1.76321C2.06602 1.99177 1.93593 2.30177 1.93593 2.625V13.7806C1.93596 13.8578 1.95827 13.9334 2.00025 13.9985C2.04223 14.0637 2.10214 14.1156 2.17296 14.1484C2.24379 14.1811 2.3226 14.1933 2.40016 14.1834C2.47773 14.1735 2.55084 14.142 2.61093 14.0926L4.84995 12.2515ZM5.6402 13.1875H14.6951C15.35 13.1875 15.9782 12.9307 16.4413 12.4736C16.9044 12.0165 17.1646 11.3965 17.1646 10.75V2.625C17.1646 1.97853 16.9044 1.35855 16.4413 0.901427C15.9782 0.444307 15.35 0.1875 14.6951 0.1875L3.17068 0.1875C2.51573 0.1875 1.8876 0.444307 1.42448 0.901427C0.961352 1.35855 0.701172 1.97853 0.701172 2.625L0.701172 13.7806C0.701289 14.0894 0.790531 14.3917 0.958448 14.6523C1.12637 14.9128 1.36601 15.1207 1.64931 15.2516C1.93261 15.3826 2.24785 15.4312 2.55811 15.3917C2.86837 15.3522 3.1608 15.2262 3.40117 15.0286L5.6402 13.1875Z" fill="#626262"/>
<path d="M5.02271 5.0625C5.02271 4.90088 5.08775 4.74589 5.20353 4.63161C5.31931 4.51733 5.47634 4.45312 5.64008 4.45312H12.2254C12.3892 4.45312 12.5462 4.51733 12.662 4.63161C12.7778 4.74589 12.8428 4.90088 12.8428 5.0625C12.8428 5.22412 12.7778 5.37911 12.662 5.49339C12.5462 5.60767 12.3892 5.67188 12.2254 5.67188H5.64008C5.47634 5.67188 5.31931 5.60767 5.20353 5.49339C5.08775 5.37911 5.02271 5.22412 5.02271 5.0625Z" fill="#626262"/>
<path d="M5.02271 8.3125C5.02271 8.15088 5.08775 7.99589 5.20353 7.88161C5.31931 7.76733 5.47634 7.70312 5.64008 7.70312H8.93277C9.0965 7.70312 9.25354 7.76733 9.36932 7.88161C9.4851 7.99589 9.55014 8.15088 9.55014 8.3125C9.55014 8.47412 9.4851 8.62911 9.36932 8.74339C9.25354 8.85767 9.0965 8.92188 8.93277 8.92188H5.64008C5.47634 8.92188 5.31931 8.85767 5.20353 8.74339C5.08775 8.62911 5.02271 8.47412 5.02271 8.3125Z" fill="#626262"/>
</g>
</svg>
