<svg width="14" height="17" viewBox="0 0 14 17" fill="none" xmlns="http://www.w3.org/2000/svg">
<g opacity="0.6">
<path d="M11.0633 16.4383H3.42432C3.01325 16.4235 2.61057 16.3193 2.24508 16.133C1.87959 15.9468 1.56033 15.6831 1.31013 15.3608C1.05993 15.0385 0.884979 14.6657 0.797795 14.2689C0.710611 13.8721 0.713348 13.4612 0.805809 13.0656L1.00337 12.1402C1.11511 11.5323 1.43607 10.9812 1.91199 10.58C2.3879 10.1788 2.98958 9.95214 3.61529 9.93829H10.8757C11.5011 9.95251 12.1024 10.1794 12.578 10.5805C13.0535 10.9817 13.3742 11.5326 13.4859 12.1402L13.6827 13.0656C13.7754 13.4613 13.7784 13.8724 13.6913 14.2693C13.6042 14.6663 13.4292 15.0393 13.1788 15.3617C12.9285 15.684 12.609 15.9477 12.2433 16.1338C11.8775 16.32 11.4746 16.4239 11.0633 16.4383ZM3.61529 11.1489C3.27435 11.1624 2.94864 11.2919 2.69353 11.5156C2.43842 11.7392 2.26965 12.0432 2.2159 12.3758L2.01669 13.302C1.9664 13.5439 1.97056 13.7937 2.02888 14.0338C2.0872 14.2739 2.19826 14.4984 2.35419 14.6914C2.48183 14.8516 2.64422 14.9814 2.82942 15.0714C3.01462 15.1614 3.2179 15.2092 3.42432 15.2114H11.0633C11.2698 15.2095 11.4732 15.1617 11.6584 15.0717C11.8436 14.9817 12.006 14.8517 12.1335 14.6914V14.6995C12.2906 14.5055 12.4023 14.2797 12.4607 14.0381C12.519 13.7965 12.5225 13.5451 12.471 13.302L12.2726 12.3758C12.2188 12.0432 12.0501 11.7392 11.795 11.5156C11.5398 11.2919 11.2141 11.1624 10.8732 11.1489H3.61529Z" fill="black"/>
<path d="M7.67861 8.31251H6.85544C5.98217 8.31251 5.14466 7.9701 4.52716 7.36061C3.90966 6.75111 3.56276 5.92446 3.56276 5.06251V2.91832C3.56167 2.56016 3.6322 2.2053 3.77028 1.87409C3.90837 1.54287 4.11131 1.2418 4.36748 0.988123C4.62365 0.734448 4.928 0.533152 5.26312 0.395769C5.59823 0.258385 5.95751 0.187614 6.32038 0.187508H8.21367C8.57595 0.186622 8.93481 0.256605 9.26953 0.393414C9.60425 0.530223 9.90818 0.731145 10.1638 0.984571C10.6814 1.49843 10.9717 2.19371 10.9713 2.91832V5.06251C10.9713 5.92446 10.6244 6.75111 10.0069 7.36061C9.38939 7.9701 8.55188 8.31251 7.67861 8.31251ZM6.32943 1.40626C5.92321 1.40647 5.53369 1.56585 5.24644 1.84937C4.9592 2.13289 4.79773 2.51736 4.79751 2.91832V5.06251C4.79751 5.60123 5.01433 6.11789 5.40027 6.49882C5.7862 6.87975 6.30964 7.09376 6.85544 7.09376H7.67861C8.22441 7.09376 8.74785 6.87975 9.13378 6.49882C9.51972 6.11789 9.73654 5.60123 9.73654 5.06251V2.91832C9.73709 2.71967 9.69773 2.52288 9.62072 2.33934C9.54372 2.15581 9.4306 1.98917 9.28791 1.84907C9.00024 1.56654 8.61126 1.40742 8.20544 1.40626H6.32943Z" fill="black"/>
</g>
</svg>
