<svg width="21" height="21" viewBox="0 0 21 21" fill="none" xmlns="http://www.w3.org/2000/svg">
<path d="M17.3535 3.80622C21.0948 7.54692 21.0948 13.6121 17.3535 17.3531C13.6125 21.0947 7.547 21.0947 3.80599 17.3531C0.0646705 13.6124 0.0646705 7.54723 3.80599 3.80622C7.547 0.0645933 13.6122 0.0645933 17.3535 3.80622Z" stroke="white" stroke-width="1.2" stroke-miterlimit="10"/>
<path d="M9.96167 13.9789V15.215Z" fill="white"/>
<path d="M9.96167 13.9789V15.215" stroke="white" stroke-width="1.2" stroke-miterlimit="10"/>
<path d="M8.10767 7.18042C8.10767 6.25336 8.72571 5.63531 10.5798 5.63531C12.1249 5.63531 13.052 6.56238 13.052 7.79846C13.052 9.03455 11.1979 9.96161 11.1979 9.96161C11.1979 9.96161 9.96179 10.5797 9.96179 12.4338V12.7428" stroke="white" stroke-width="1.2" stroke-miterlimit="10"/>
</svg>
